<?xml version="1.0" encoding="utf-8"?>
<svg viewBox="0 0 160 160" xmlns="http://www.w3.org/2000/svg">
  <path fill="#20639B" d="M 121.369 83.268 L 82.817 83.268 L 82.817 115.87 C 94.001 116.11 104.712 118.012 114.705 121.344 C 118.751 110.16 120.893 97.072 121.369 83.268 Z M 112.802 126.817 C 103.283 123.724 93.289 122.058 82.817 121.82 L 82.817 156.803 C 95.192 155.374 105.901 143.951 112.802 126.817 Z M 41.649 128.722 C 35.461 131.101 29.75 133.957 24.276 137.288 C 35.222 147.999 49.263 155.374 64.97 158.468 C 55.688 152.995 47.596 142.761 41.649 128.722 Z M 77.106 156.564 L 77.106 121.583 C 66.636 121.82 56.641 123.724 47.122 126.579 C 54.022 143.951 64.731 155.374 77.106 156.564 Z M 120.416 123.249 C 127.318 125.865 133.744 129.197 139.692 133.006 C 151.591 119.679 158.967 102.307 159.682 83.032 L 127.318 83.032 C 126.843 97.787 124.462 111.35 120.416 123.249 Z M 94.716 158.468 C 110.422 155.612 124.462 147.999 135.409 137.288 C 129.936 133.957 124.225 130.863 118.037 128.722 C 112.325 142.761 104.234 152.995 94.716 158.468 Z M 47.122 33.533 C 56.641 36.627 66.636 38.293 77.106 38.53 L 77.106 3.549 C 64.731 5.214 54.022 16.637 47.122 33.533 Z M 65.207 1.883 C 49.501 4.739 35.461 12.353 24.515 23.062 C 29.988 26.394 35.699 29.487 41.887 31.628 C 47.596 17.827 55.688 7.118 65.207 1.883 Z M 103.758 29.965 C 103.758 26.394 104.473 23.062 105.662 20.206 C 99.237 10.689 91.386 4.739 82.817 3.549 L 82.817 38.53 C 90.195 38.293 97.333 37.34 104.234 35.674 C 103.996 33.771 103.758 32.106 103.758 29.965 Z M 17.374 73.274 C 17.374 61.377 25.467 51.382 36.413 48.288 C 37.365 44.481 38.316 40.672 39.507 37.102 C 32.605 34.485 26.18 31.154 20.231 27.346 C 8.333 40.672 0.954 58.045 0.242 77.32 L 17.613 77.32 C 17.613 75.892 17.374 74.702 17.374 73.274 Z M 77.106 77.32 L 77.106 44.717 C 65.921 44.481 55.212 42.576 45.217 39.245 C 44.265 41.862 43.552 44.481 42.838 47.335 L 43.552 47.335 C 57.83 47.335 69.73 58.995 69.73 73.511 C 69.73 74.939 69.491 76.131 69.491 77.559 L 77.106 77.559 L 77.106 77.32 Z" style=""/>
  <path fill="#ED553B" d="M 129.698 67.801 C 138.266 51.856 149.687 42.337 149.687 30.2 C 149.687 19.254 140.881 10.211 129.698 10.211 C 118.751 10.211 109.709 19.018 109.709 30.2 C 109.946 42.337 121.369 51.856 129.698 67.801 Z M 129.698 19.018 C 135.885 19.018 140.881 24.014 140.881 30.2 C 140.881 36.388 135.885 41.387 129.698 41.387 C 123.51 41.387 118.513 36.388 118.513 30.2 C 118.751 24.014 123.749 19.018 129.698 19.018 Z M 43.315 53.284 C 32.367 53.284 23.325 62.089 23.325 73.274 C 23.325 85.648 34.747 94.93 43.315 110.875 C 51.881 94.93 63.304 85.411 63.304 73.274 C 63.304 62.089 54.497 53.284 43.315 53.284 Z M 43.315 84.222 C 37.127 84.222 32.13 79.224 32.13 73.037 C 32.13 66.849 37.127 61.851 43.315 61.851 C 49.501 61.851 54.497 66.849 54.497 73.037 C 54.497 79.461 49.501 84.222 43.315 84.222 Z" style=""/>
  <path fill="#173F5F" d="M 58.07 98.975 C 54.975 103.497 51.644 108.019 48.787 113.49 L 44.981 120.869 L 44.981 121.106 C 54.975 117.776 65.921 115.87 76.867 115.634 L 76.867 83.268 L 67.35 83.268 C 65.445 88.742 61.876 93.978 58.07 98.975 Z M 36.175 110.16 C 33.795 106.115 31.415 102.545 28.799 98.975 C 24.99 93.74 21.42 88.505 19.278 82.793 L 0.242 82.793 C 0.954 102.068 8.333 119.442 20.231 132.767 C 26.419 128.959 32.843 125.628 39.507 123.011 C 38.316 119.202 37.127 114.919 36.175 110.16 Z M 108.756 14.733 C 110.422 12.353 112.564 10.211 114.944 8.545 C 108.518 5.451 101.855 3.072 94.716 1.883 C 99.951 4.739 104.712 9.26 108.756 14.733 Z M 135.171 70.417 L 131.601 77.08 L 159.682 77.08 C 159.207 65.658 156.35 54.713 151.591 44.956 C 149.687 48.762 147.069 52.333 144.452 55.904 C 141.359 60.662 138.027 65.183 135.171 70.417 Z M 120.178 63.755 C 118.513 61.138 116.847 58.52 114.944 56.141 C 111.612 51.382 108.281 46.622 106.137 41.623 C 98.523 43.528 90.907 44.481 82.817 44.717 L 82.817 77.32 L 121.13 77.32 C 121.13 72.56 120.893 68.038 120.178 63.755 Z" style=""/>
</svg>